<svg style="display: none" xmlns="http://www.w3.org/2000/svg">
    <symbol viewBox="0 0 21 22" id="svgDown">
      <path d="M9.63397 15C10.0189 15.6667 10.9811 15.6667 11.366 15L14.3971 9.75C14.782 9.08333 14.3009 8.25 13.5311 8.25H7.46891C6.69911 8.25 6.21799 9.08333 6.60289 9.75L9.63397 15Z"/>
    </symbol>

    <symbol viewBox="0 0 20 21" id="svgMap">
      <path d="M16.6667 8.83332C16.6667 13.8333 10 18.8333 10 18.8333C10 18.8333 3.33337 13.8333 3.33337 8.83332C3.33337 7.06521 4.03575 5.36952 5.286 4.11928C6.53624 2.86904 8.23193 2.16666 10 2.16666C11.7682 2.16666 13.4638 2.86904 14.7141 4.11928C15.9643 5.36952 16.6667 7.06521 16.6667 8.83332Z"  stroke-width="1.5" stroke-linecap="round" stroke-linejoin="round"/>
      <path d="M10 11.3333C11.3807 11.3333 12.5 10.214 12.5 8.83331C12.5 7.4526 11.3807 6.33331 10 6.33331C8.61929 6.33331 7.5 7.4526 7.5 8.83331C7.5 10.214 8.61929 11.3333 10 11.3333Z"  stroke-width="1.5" stroke-linecap="round" stroke-linejoin="round"/>
    </symbol>

    <symbol viewBox="0 0 20 20" id="svgTel">
      <path d="M11.7083 1.66668C13.4069 1.84565 14.9935 2.59901 16.2057 3.80216C17.4179 5.00531 18.1832 6.58619 18.375 8.28334M11.7083 5.00001C12.5279 5.16162 13.28 5.56587 13.867 6.16027C14.4539 6.75467 14.8487 7.51178 15 8.33334M18.3333 14.1V16.6C18.3343 16.8321 18.2867 17.0618 18.1937 17.2745C18.1008 17.4871 17.9644 17.678 17.7934 17.8349C17.6224 17.9918 17.4205 18.1112 17.2006 18.1856C16.9808 18.26 16.7478 18.2876 16.5167 18.2667C13.9523 17.988 11.4892 17.1118 9.32499 15.7083C7.31151 14.4289 5.60443 12.7218 4.32499 10.7083C2.91663 8.53435 2.04019 6.05917 1.76665 3.48334C1.74583 3.2529 1.77321 3.02064 1.84707 2.80136C1.92092 2.58208 2.03963 2.38058 2.19562 2.20969C2.35162 2.0388 2.54149 1.90227 2.75314 1.80878C2.9648 1.71529 3.1936 1.66689 3.42499 1.66668H5.92499C6.32941 1.6627 6.72148 1.80591 7.02812 2.06962C7.33476 2.33333 7.53505 2.69955 7.59165 3.10001C7.69717 3.90006 7.89286 4.68562 8.17499 5.44168C8.2871 5.73995 8.31137 6.0641 8.24491 6.37574C8.17844 6.68738 8.02404 6.97344 7.79999 7.20001L6.74165 8.25834C7.92795 10.3446 9.65536 12.072 11.7417 13.2583L12.8 12.2C13.0266 11.976 13.3126 11.8216 13.6243 11.7551C13.9359 11.6886 14.26 11.7129 14.5583 11.825C15.3144 12.1071 16.0999 12.3028 16.9 12.4083C17.3048 12.4655 17.6745 12.6693 17.9388 12.9813C18.203 13.2932 18.3435 13.6913 18.3333 14.1Z" stroke-width="1.5" stroke-linecap="round" stroke-linejoin="round"/>
    </symbol>

    <symbol viewBox="0 0 20 20" id="svgMail">
      <path d="M16.6666 3.33334H3.33329C2.41282 3.33334 1.66663 4.07954 1.66663 5.00001V15C1.66663 15.9205 2.41282 16.6667 3.33329 16.6667H16.6666C17.5871 16.6667 18.3333 15.9205 18.3333 15V5.00001C18.3333 4.07954 17.5871 3.33334 16.6666 3.33334Z" stroke-width="1.5" stroke-linecap="round" stroke-linejoin="round"/>
      <path d="M18.3333 5.83334L10.8583 10.5833C10.601 10.7445 10.3036 10.83 9.99996 10.83C9.69636 10.83 9.3989 10.7445 9.14163 10.5833L1.66663 5.83334" stroke-width="1.5" stroke-linecap="round" stroke-linejoin="round"/>
    </symbol>

    <symbol viewBox="0 0 20 20" id="svgTelegram">
      <path d="M18.5063 2.0461C18.4094 1.96248 18.2916 1.90687 18.1655 1.88526C18.0394 1.86364 17.9098 1.87685 17.7906 1.92345L1.95783 8.11954C1.73344 8.20679 1.54347 8.36458 1.41652 8.56914C1.28957 8.7737 1.2325 9.01397 1.25392 9.25377C1.27533 9.49357 1.37407 9.71992 1.53526 9.89875C1.69645 10.0776 1.91137 10.1992 2.14767 10.2453L6.25001 11.0508V15.625C6.24921 15.8742 6.32325 16.1178 6.46255 16.3244C6.60184 16.531 6.79998 16.691 7.03126 16.7836C7.2622 16.8779 7.51616 16.9005 7.76013 16.8486C8.00409 16.7966 8.22678 16.6724 8.39923 16.4922L10.3774 14.4406L13.5156 17.1875C13.7421 17.3883 14.0341 17.4995 14.3367 17.5C14.4694 17.4999 14.6012 17.4791 14.7274 17.4383C14.9336 17.3729 15.119 17.2545 15.2653 17.0951C15.4115 16.9357 15.5135 16.7408 15.561 16.5297L18.732 2.73438C18.7604 2.60997 18.7544 2.48018 18.7146 2.35893C18.6748 2.23768 18.6028 2.12954 18.5063 2.0461ZM13.7297 4.8586L6.73048 9.8711L2.85548 9.11095L13.7297 4.8586ZM7.50001 15.625V11.9156L9.43673 13.6141L7.50001 15.625ZM14.3383 16.25L7.87892 10.5859L17.1758 3.92267L14.3383 16.25Z">
    </symbol>

    <symbol viewBox="0 0 17 17" id="svgBasket">
      <path d="M1.0625 2.125H2.30208L2.83333 4.25M2.83333 4.25L4.60417 11.3333H13.8125L15.5833 4.25H2.83333Z" stroke="white" stroke-linecap="round" stroke-linejoin="round"/>
      <path d="M4.60449 14.875C5.19129 14.875 5.66699 14.3993 5.66699 13.8125C5.66699 13.2257 5.19129 12.75 4.60449 12.75C4.01769 12.75 3.54199 13.2257 3.54199 13.8125C3.54199 14.3993 4.01769 14.875 4.60449 14.875Z" stroke="white" stroke-linecap="round" stroke-linejoin="round"/>
      <path d="M13.8125 14.875C14.3993 14.875 14.875 14.3993 14.875 13.8125C14.875 13.2257 14.3993 12.75 13.8125 12.75C13.2257 12.75 12.75 13.2257 12.75 13.8125C12.75 14.3993 13.2257 14.875 13.8125 14.875Z" stroke="white" stroke-linecap="round" stroke-linejoin="round"/>
    </symbol>


    <svg xmlns="http://www.w3.org/2000/svg" width="17" height="17" viewBox="0 0 17 17" fill="none">
  <path d="M1.0625 2.125H2.30208L2.83333 4.25M2.83333 4.25L4.60417 11.3333H13.8125L15.5833 4.25H2.83333Z" stroke="white" stroke-linecap="round" stroke-linejoin="round"/>
  <path d="M4.60449 14.875C5.19129 14.875 5.66699 14.3993 5.66699 13.8125C5.66699 13.2257 5.19129 12.75 4.60449 12.75C4.01769 12.75 3.54199 13.2257 3.54199 13.8125C3.54199 14.3993 4.01769 14.875 4.60449 14.875Z" stroke="white" stroke-linecap="round" stroke-linejoin="round"/>
  <path d="M13.8125 14.875C14.3993 14.875 14.875 14.3993 14.875 13.8125C14.875 13.2257 14.3993 12.75 13.8125 12.75C13.2257 12.75 12.75 13.2257 12.75 13.8125C12.75 14.3993 13.2257 14.875 13.8125 14.875Z" stroke="white" stroke-linecap="round" stroke-linejoin="round"/>
</svg>

    <symbol viewBox="0 0 12 24" id="svgLeft">
      <path d="M2.05085 12L11.7509 22.0303C11.8307 22.1111 11.8939 22.2071 11.9366 22.3126C11.9794 22.4182 12.0009 22.5312 12 22.6452C11.999 22.7591 11.9756 22.8718 11.9311 22.9766C11.8866 23.0814 11.8219 23.1763 11.7407 23.2558C11.6596 23.3353 11.5635 23.3978 11.4582 23.4397C11.3528 23.4816 11.2403 23.502 11.127 23.4998C11.0137 23.4977 10.902 23.4729 10.7984 23.427C10.6947 23.3811 10.6011 23.315 10.5229 23.2325L0.24266 12.6011C0.087059 12.4402 9.53674e-07 12.2245 9.53674e-07 12C9.53674e-07 11.7755 0.087059 11.5598 0.24266 11.3989L10.5229 0.767527C10.6011 0.68499 10.6947 0.618862 10.7984 0.572968C10.902 0.527073 11.0137 0.502325 11.127 0.500156C11.2403 0.497986 11.3528 0.518438 11.4582 0.560328C11.5635 0.602217 11.6596 0.664711 11.7407 0.744196C11.8219 0.823683 11.8866 0.918579 11.9311 1.0234C11.9756 1.12821 11.999 1.24087 12 1.35484C12.0009 1.46881 11.9794 1.58185 11.9366 1.68739C11.8939 1.79294 11.8307 1.8889 11.7509 1.96973L2.05085 12Z"/>
    </symbol>

    <symbol viewBox="0 0 12 24" id="svgRight">
      <path d="M9.94915 12L0.249138 22.0303C0.169276 22.1111 0.106139 22.2071 0.06338 22.3126C0.0206207 22.4182 -0.000911446 22.5312 2.95633e-05 22.6452C0.000970572 22.7591 0.0243654 22.8718 0.0688615 22.9766C0.113358 23.0814 0.178072 23.1763 0.259257 23.2558C0.340443 23.3353 0.436488 23.3978 0.541836 23.4397C0.647183 23.4816 0.759742 23.502 0.872997 23.4998C0.986253 23.4977 1.09795 23.4729 1.20164 23.427C1.30533 23.3811 1.39894 23.315 1.47706 23.2325L11.7573 12.6011C11.9129 12.4402 12 12.2245 12 12C12 11.7755 11.9129 11.5598 11.7573 11.3989L1.47706 0.767527C1.39894 0.68499 1.30533 0.618862 1.20164 0.572968C1.09795 0.527073 0.986253 0.502325 0.872997 0.500156C0.759742 0.497986 0.647183 0.518438 0.541836 0.560328C0.436488 0.602217 0.340443 0.664711 0.259257 0.744196C0.178072 0.823683 0.113358 0.918579 0.0688615 1.0234C0.0243654 1.12821 0.000970572 1.24087 2.95633e-05 1.35484C-0.000911446 1.46881 0.0206207 1.58185 0.06338 1.68739C0.106139 1.79294 0.169276 1.8889 0.249138 1.96973L9.94915 12Z"/>
    </symbol>

    <symbol viewBox="0 0 20 20" id="svgVk" fill="none">   
      <path fill-rule="evenodd" clip-rule="evenodd" d="M18.9336 5.15625C19.0727 4.71563 18.9336 4.39531 18.3184 4.39531H16.2727C15.7566 4.39531 15.5184 4.67578 15.3793 4.97578C15.3793 4.97578 14.327 7.53828 12.8574 9.19961C12.3809 9.68008 12.1625 9.84024 11.9043 9.84024C11.7652 9.84024 11.5863 9.68008 11.5863 9.23984V5.13555C11.5863 4.61523 11.4277 4.375 10.9906 4.375H7.77344C7.45547 4.375 7.25703 4.61523 7.25703 4.85547C7.25703 5.35586 7.9918 5.47617 8.07109 6.87734V9.92188C8.07109 10.5824 7.95391 10.7031 7.69375 10.7031C6.99883 10.7031 5.31094 8.1207 4.29844 5.17812C4.10156 4.59531 3.90156 4.375 3.38516 4.375H1.31992C0.724219 4.375 0.625 4.65508 0.625 4.95547C0.625 5.49609 1.31992 8.21836 3.86172 11.8215C5.54961 14.2824 7.95234 15.6051 10.1168 15.6051C11.4277 15.6051 11.5863 15.3047 11.5863 14.8043V12.9426C11.5863 12.3422 11.7055 12.2422 12.1227 12.2422C12.4203 12.2422 12.9566 12.402 14.168 13.5832C15.5578 14.9844 15.7961 15.625 16.5707 15.625H18.616C19.2117 15.625 19.4898 15.3246 19.3309 14.7441C19.1523 14.1637 18.477 13.323 17.6031 12.3223C17.1266 11.7621 16.4117 11.1414 16.1934 10.841C15.8957 10.4406 15.975 10.2805 16.1934 9.92031C16.1734 9.92031 18.6758 6.35703 18.9336 5.15469"/>
    </symbol>

    <symbol viewBox="0 0 20 20" id="svgOdn">
      <path d="M14.8584 10.6166C14.625 10.1416 13.9667 9.74163 13.0917 10.4166C11.9 11.3666 10 11.3666 10 11.3666C10 11.3666 8.10004 11.3666 6.90838 10.4166C6.03338 9.74163 5.37504 10.1416 5.14171 10.6166C4.72504 11.45 5.19171 11.8583 6.25004 12.5333C7.15838 13.1166 8.40004 13.3333 9.20004 13.4166L8.53338 14.0833C7.58338 15.025 6.66671 15.9333 6.04171 16.5666C5.66671 16.95 5.66671 17.5583 6.04171 17.9166L6.15838 18.05C6.53338 18.425 7.15004 18.425 7.52504 18.05L10 15.5666C10.9584 16.5083 11.8667 17.4166 12.5 18.05C12.875 18.425 13.4834 18.425 13.8667 18.05L13.975 17.9166C14.3584 17.5583 14.3584 16.95 13.975 16.5666L11.4917 14.0833L10.8334 13.4083C11.625 13.3333 12.85 13.1083 13.75 12.5333C14.8084 11.8583 15.275 11.45 14.8584 10.6166ZM10 3.80829C11.15 3.80829 12.0834 4.74163 12.0834 5.88329C12.0834 7.03329 11.15 7.95829 10 7.95829C8.85004 7.95829 7.91671 7.03329 7.91671 5.88329C7.91671 4.74163 8.85004 3.80829 10 3.80829ZM10 10.1C12.3334 10.1 14.2167 8.21663 14.2167 5.88329C14.2167 4.76496 13.7725 3.69244 12.9817 2.90166C12.1909 2.11088 11.1184 1.66663 10 1.66663C8.88171 1.66663 7.80919 2.11088 7.01841 2.90166C6.22763 3.69244 5.78338 4.76496 5.78338 5.88329C5.78338 8.21663 7.66671 10.1 10 10.1Z"/>
    </symbol>

    <symbol viewBox="0 0 135 25" id="svgDelta">
      <g opacity="1" clip-path="url(#clip0_13_2299)">
        <path d="M34.0878 3.28298C34.3578 3.21632 34.6446 3.16632 34.9653 3.14965C35.2859 3.13298 35.5896 3.11632 35.8934 3.11632C36.2309 3.11632 36.5515 3.14965 36.889 3.21632C37.2265 3.28298 37.5471 3.39965 37.8171 3.56632C38.0871 3.73298 38.3234 3.96632 38.4921 4.26632C38.6778 4.54965 38.7621 4.93298 38.7621 5.38298C38.7621 5.83298 38.6778 6.21632 38.509 6.53298C38.3403 6.83298 38.1378 7.08298 37.8678 7.28298C37.5978 7.46632 37.2771 7.61632 36.9228 7.69965C36.5853 7.78298 36.2309 7.81632 35.8596 7.81632C35.809 7.81632 35.7584 7.81632 35.674 7.81632C35.5896 7.81632 35.5053 7.81632 35.4209 7.81632C35.3365 7.81632 35.2353 7.81632 35.1509 7.79965C35.0665 7.79965 35.0159 7.78298 34.9821 7.78298V10.583H34.0878V3.28298ZM42.2721 18.3496H39.9096V22.883H39.049V17.6163H43.1159V22.883H42.2721V18.3496ZM44.7528 17.6163H45.3434L45.5121 18.2496H45.5459C45.7146 17.9996 45.9171 17.8163 46.1871 17.683C46.4403 17.5496 46.744 17.483 47.0815 17.483C47.7903 17.483 48.3134 17.6996 48.6678 18.1163C49.0221 18.533 49.1909 19.1996 49.1909 20.1496C49.1909 20.583 49.1234 20.983 49.0221 21.3496C48.904 21.6996 48.7353 21.9996 48.5159 22.2496C48.2965 22.4996 48.0434 22.683 47.7396 22.8163C47.4359 22.9496 47.0984 23.0163 46.7271 23.0163C46.474 23.0163 46.2546 22.9996 46.1028 22.9663C45.9509 22.933 45.7821 22.883 45.6134 22.7996V24.9996H44.7528V17.6163ZM46.9128 18.233C46.5584 18.233 46.2715 18.3163 46.0521 18.4996C45.8496 18.6996 45.6978 18.983 45.6134 19.3496V21.9663C45.7315 22.0663 45.8834 22.1496 46.0521 22.1996C46.2209 22.2496 46.4234 22.283 46.6934 22.283C47.1996 22.283 47.5878 22.0996 47.8746 21.733C48.1615 21.3663 48.2965 20.833 48.2965 20.133C48.2965 19.8496 48.2796 19.583 48.229 19.3496C48.1784 19.1163 48.094 18.9163 47.9928 18.7496C47.8746 18.583 47.7396 18.4496 47.554 18.3663C47.3853 18.2663 47.1659 18.233 46.9128 18.233ZM50.2203 20.2496C50.2203 19.3663 50.4228 18.6663 50.8278 18.1996C51.2328 17.733 51.8065 17.483 52.5659 17.483C52.9709 17.483 53.3084 17.5496 53.6121 17.683C53.899 17.8163 54.1521 17.9996 54.3378 18.2496C54.5234 18.483 54.6753 18.783 54.7596 19.1163C54.8609 19.4663 54.9115 19.833 54.9115 20.2496C54.9115 21.1496 54.709 21.833 54.304 22.2996C53.899 22.783 53.3253 23.0163 52.5659 23.0163C52.1609 23.0163 51.8234 22.9496 51.5196 22.8163C51.2328 22.683 50.9796 22.4996 50.794 22.2663C50.6084 22.0163 50.4565 21.733 50.3721 21.383C50.2709 21.0496 50.2203 20.6663 50.2203 20.2496ZM51.1146 20.2496C51.1146 20.5163 51.1484 20.783 51.199 21.0163C51.2496 21.2663 51.334 21.483 51.4521 21.6663C51.5534 21.8496 51.7053 21.9996 51.8909 22.1163C52.0765 22.2163 52.2959 22.283 52.5659 22.283C53.5278 22.283 54.0171 21.6163 54.0171 20.2496C54.0171 19.983 54.0003 19.7163 53.9328 19.4663C53.8821 19.233 53.7978 19.0163 53.6796 18.833C53.5784 18.6496 53.4265 18.4996 53.2409 18.383C53.0553 18.283 52.8359 18.233 52.5659 18.233C51.604 18.2163 51.1146 18.8996 51.1146 20.2496ZM60.9021 24.233H60.3284L60.1596 22.883H56.1434L55.9915 24.233H55.4009V22.1496H56.0421C56.0928 22.0663 56.1771 21.933 56.2615 21.733C56.3628 21.533 56.4471 21.2496 56.5315 20.883C56.6328 20.533 56.7003 20.083 56.7678 19.533C56.8353 18.9996 56.8859 18.3663 56.8859 17.6163H60.1259V22.1496H60.9021V24.233ZM59.2653 22.1496V18.3496H57.6621C57.6453 18.6496 57.6284 18.9663 57.5946 19.3163C57.544 19.6663 57.5103 20.0163 57.4428 20.3663C57.3753 20.7163 57.3078 21.033 57.2065 21.3496C57.1221 21.6663 57.0209 21.933 56.8859 22.1496H59.2653ZM61.9484 17.633C62.2015 17.6163 62.4546 17.5996 62.7246 17.5663C63.0115 17.5496 63.349 17.533 63.754 17.533C64.4628 17.533 64.969 17.6496 65.2728 17.8663C65.5765 18.083 65.7284 18.3996 65.7284 18.833C65.7284 19.083 65.6609 19.333 65.509 19.5663C65.3571 19.7996 65.1209 19.9663 64.7834 20.083V20.133C65.2053 20.1996 65.509 20.3496 65.6778 20.5496C65.8465 20.7663 65.9309 21.0496 65.9309 21.3996C65.9309 21.9496 65.7284 22.3496 65.3403 22.5996C64.9353 22.833 64.3278 22.9663 63.5346 22.9663C63.2309 22.9663 62.9609 22.9496 62.7078 22.933C62.4546 22.9163 62.2015 22.8996 61.9484 22.883V17.633ZM62.809 22.183C62.944 22.1996 63.0621 22.1996 63.1971 22.2163C63.3321 22.2163 63.484 22.233 63.6696 22.233C64.1421 22.233 64.4965 22.1663 64.7328 22.0163C64.969 21.883 65.0703 21.6663 65.0703 21.333C65.0703 21.083 64.9859 20.883 64.7834 20.7163C64.5809 20.5663 64.2434 20.483 63.7371 20.483H62.809V22.183ZM63.8553 19.833C63.9734 19.833 64.1084 19.8163 64.2265 19.783C64.3446 19.733 64.4459 19.683 64.5471 19.5996C64.6484 19.533 64.7159 19.4496 64.7834 19.3496C64.8509 19.2496 64.8678 19.133 64.8678 19.033C64.8678 18.7496 64.7834 18.5496 64.6146 18.4496C64.4459 18.333 64.1421 18.283 63.7203 18.283C63.484 18.283 63.3153 18.283 63.1803 18.283C63.0453 18.2996 62.9271 18.2996 62.809 18.3163V19.833H63.8553ZM70.6053 19.7663L70.639 19.1163H70.6053L70.1665 19.783L67.7534 22.883H67.264V17.6163H68.1246V20.833L68.0909 21.4496H68.1246L68.5465 20.7996L70.9596 17.6163H71.449V22.883H70.6053V19.7663ZM74.824 20.5496L73.2546 22.883H72.2759L73.9634 20.4663L74.3346 20.1496L73.7778 19.7496L72.394 17.6163H73.3053L74.7734 19.8996H75.3303V17.6163H76.174V19.9996L76.6634 19.8496L78.1484 17.6163H79.0428L77.5915 19.7496L77.1865 20.0996L77.7265 20.5163L79.3128 22.883H78.3003L76.714 20.5163H76.174V22.883H75.3303V20.4163L74.824 20.5496ZM83.9365 22.4663C83.734 22.633 83.464 22.7663 83.1434 22.8663C82.8059 22.9663 82.4684 23.0163 82.114 23.0163C81.6921 23.0163 81.3546 22.9496 81.0509 22.8163C80.7471 22.683 80.5109 22.4996 80.3084 22.2663C80.1228 22.0163 79.9709 21.733 79.8865 21.3996C79.7853 21.0496 79.7515 20.6663 79.7515 20.2496C79.7515 19.3496 79.954 18.6663 80.359 18.1996C80.764 17.7163 81.3378 17.483 82.0971 17.483C82.3334 17.483 82.5865 17.5163 82.8228 17.5663C83.059 17.6163 83.2784 17.7163 83.4809 17.8663C83.6665 18.0163 83.8184 18.2163 83.9365 18.4996C84.0715 18.7663 84.1221 19.1163 84.1221 19.5663C84.1221 19.7996 84.1053 20.0496 84.0546 20.333H80.629C80.629 20.6496 80.6628 20.9163 80.7303 21.1663C80.7978 21.3996 80.899 21.5996 81.034 21.7663C81.169 21.933 81.3378 22.0496 81.5571 22.1496C81.7765 22.233 82.0465 22.283 82.3503 22.283C82.5865 22.283 82.8396 22.233 83.0759 22.1496C83.3121 22.0663 83.4978 21.9663 83.6159 21.8496L83.9365 22.4663ZM82.114 18.233C81.6921 18.233 81.3546 18.333 81.1015 18.5496C80.8484 18.7663 80.6965 19.1496 80.6459 19.6663H83.2953C83.2953 19.133 83.194 18.7663 82.9746 18.5496C82.7721 18.333 82.4853 18.233 82.114 18.233ZM88.729 20.5496H86.3159V22.883H85.4553V17.6163H86.3159V19.8163H88.729V17.6163H89.5896V22.883H88.729V20.5496ZM94.5509 19.7663L94.5846 19.1163H94.5509L94.1121 19.783L91.7159 22.883H91.2265V17.6163H92.0703V20.833L92.0365 21.4496H92.0871L92.509 20.7996L94.9053 17.6163H95.4115V22.883H94.5509V19.7663ZM100.947 22.4663C100.727 22.633 100.457 22.7663 100.137 22.8663C99.8159 22.9663 99.4615 23.0163 99.1071 23.0163C98.7021 23.0163 98.3478 22.9496 98.044 22.8163C97.7403 22.683 97.504 22.4996 97.3015 22.2663C97.1159 22.0163 96.9809 21.733 96.8796 21.3996C96.7953 21.0496 96.7446 20.6663 96.7446 20.2496C96.7446 19.3496 96.9471 18.6663 97.3521 18.1996C97.7571 17.7163 98.3309 17.483 99.0903 17.483C99.3434 17.483 99.5796 17.5163 99.8159 17.5663C100.069 17.6163 100.272 17.7163 100.474 17.8663C100.66 18.0163 100.828 18.2163 100.947 18.4996C101.065 18.7663 101.115 19.1163 101.115 19.5663C101.115 19.7996 101.098 20.0496 101.065 20.333H97.6221C97.6221 20.6496 97.6559 20.9163 97.7234 21.1663C97.7909 21.3996 97.8921 21.5996 98.0271 21.7663C98.1621 21.933 98.3309 22.0496 98.5503 22.1496C98.7696 22.233 99.0396 22.283 99.3434 22.283C99.5965 22.283 99.8328 22.233 100.069 22.1496C100.322 22.0663 100.508 21.9663 100.626 21.8496L100.947 22.4663ZM99.1071 18.233C98.6853 18.233 98.3478 18.333 98.0946 18.5496C97.8415 18.7663 97.6896 19.1496 97.639 19.6663H100.288C100.288 19.133 100.187 18.7663 99.9846 18.5496C99.7653 18.333 99.4784 18.233 99.1071 18.233ZM108.945 22.5496C108.743 22.6996 108.49 22.8163 108.203 22.8996C107.899 22.983 107.595 23.0163 107.275 23.0163C106.87 23.0163 106.515 22.9496 106.228 22.8163C105.942 22.683 105.705 22.4996 105.537 22.2663C105.351 22.0163 105.216 21.733 105.132 21.383C105.047 21.0496 105.013 20.6663 105.013 20.2496C105.013 19.3663 105.216 18.6663 105.604 18.1996C106.009 17.733 106.583 17.483 107.325 17.483C107.68 17.483 107.967 17.5163 108.203 17.5663C108.439 17.6163 108.658 17.6996 108.844 17.7996L108.608 18.5163C108.439 18.433 108.253 18.3663 108.051 18.2996C107.848 18.2496 107.646 18.233 107.41 18.233C106.397 18.233 105.891 18.8996 105.891 20.2496C105.891 20.5163 105.925 20.7663 105.975 21.0163C106.026 21.2663 106.127 21.4663 106.245 21.6663C106.363 21.8496 106.532 21.9996 106.735 22.1163C106.937 22.2163 107.19 22.283 107.494 22.283C107.747 22.283 107.983 22.233 108.186 22.1663C108.388 22.083 108.54 21.9996 108.675 21.8996L108.945 22.5496ZM110.025 17.9996C110.295 17.8496 110.616 17.7163 110.97 17.6496C111.342 17.5663 111.713 17.533 112.101 17.533C112.472 17.533 112.776 17.583 112.995 17.683C113.215 17.783 113.4 17.8996 113.518 18.0663C113.62 18.2163 113.704 18.3996 113.738 18.583C113.788 18.783 113.805 18.9663 113.805 19.1496C113.805 19.583 113.788 19.983 113.772 20.383C113.755 20.783 113.738 21.1663 113.738 21.533C113.738 21.783 113.755 22.033 113.772 22.2663C113.788 22.4996 113.839 22.7163 113.89 22.9163H113.265L113.029 22.1663H112.978C112.911 22.2663 112.843 22.3663 112.742 22.4663C112.641 22.5496 112.523 22.6496 112.388 22.7163C112.253 22.783 112.101 22.8496 111.932 22.8996C111.747 22.9496 111.544 22.9663 111.308 22.9663C111.088 22.9663 110.869 22.933 110.683 22.8663C110.481 22.7996 110.312 22.6996 110.177 22.5663C110.025 22.433 109.924 22.283 109.84 22.0996C109.755 21.9163 109.705 21.6996 109.705 21.483C109.705 21.1663 109.772 20.8996 109.907 20.6996C110.025 20.4996 110.211 20.333 110.447 20.1996C110.683 20.083 110.953 19.9996 111.274 19.933C111.595 19.883 111.966 19.8663 112.354 19.8663C112.455 19.8663 112.557 19.8663 112.641 19.8663C112.742 19.8663 112.843 19.8663 112.945 19.883C112.962 19.6663 112.978 19.483 112.978 19.3163C112.978 18.933 112.894 18.6496 112.742 18.4996C112.573 18.3496 112.287 18.2663 111.882 18.2663C111.763 18.2663 111.628 18.283 111.493 18.2996C111.358 18.3163 111.207 18.333 111.072 18.3663C110.92 18.3996 110.785 18.4496 110.65 18.4996C110.515 18.533 110.397 18.583 110.295 18.6496L110.025 17.9996ZM111.544 22.233C111.747 22.233 111.932 22.2163 112.084 22.1496C112.236 22.0996 112.371 22.033 112.489 21.9496C112.607 21.883 112.692 21.783 112.776 21.683C112.843 21.583 112.911 21.4996 112.945 21.3996V20.533C112.843 20.5163 112.742 20.5163 112.641 20.5163C112.523 20.4996 112.422 20.4996 112.337 20.4996C112.101 20.4996 111.898 20.5163 111.679 20.5496C111.477 20.5663 111.291 20.6163 111.122 20.683C110.97 20.7496 110.835 20.833 110.751 20.9496C110.65 21.0663 110.599 21.2163 110.599 21.3996C110.599 21.633 110.683 21.833 110.869 21.9996C111.038 22.1496 111.274 22.233 111.544 22.233ZM118.733 19.7663L118.767 19.1163H118.733L118.294 19.783L115.898 22.883H115.408V17.6163H116.269V20.833L116.235 21.4496H116.269L116.691 20.7996L119.087 17.6163H119.593V22.883H118.733V19.7663ZM116.64 15.483C116.708 15.7996 116.826 16.033 117.012 16.1663C117.18 16.283 117.383 16.3496 117.602 16.3496C117.838 16.3496 118.041 16.283 118.21 16.1496C118.395 16.0163 118.513 15.7996 118.581 15.4996L119.222 15.6996C119.155 16.0996 118.969 16.4163 118.665 16.633C118.362 16.8496 118.007 16.9663 117.585 16.9663C117.4 16.9663 117.197 16.933 117.012 16.883C116.826 16.833 116.657 16.7663 116.505 16.6663C116.353 16.5663 116.235 16.433 116.117 16.283C116.016 16.133 115.948 15.9496 115.915 15.733L116.64 15.483ZM124.639 18.3496H122.968V22.883H122.108V18.3496H120.42V17.6163H124.639V18.3496ZM124.993 20.2496C124.993 19.3663 125.196 18.6663 125.601 18.1996C126.006 17.733 126.58 17.483 127.339 17.483C127.744 17.483 128.082 17.5496 128.385 17.683C128.672 17.8163 128.925 17.9996 129.111 18.2496C129.313 18.483 129.448 18.783 129.533 19.1163C129.634 19.4663 129.685 19.833 129.685 20.2496C129.685 21.1496 129.482 21.833 129.077 22.2996C128.672 22.783 128.098 23.0163 127.339 23.0163C126.934 23.0163 126.597 22.9496 126.293 22.8163C126.006 22.683 125.753 22.4996 125.567 22.2663C125.382 22.0163 125.23 21.733 125.145 21.383C125.044 21.0496 124.993 20.6663 124.993 20.2496ZM125.888 20.2496C125.888 20.5163 125.922 20.783 125.972 21.0163C126.023 21.2663 126.107 21.483 126.225 21.6663C126.327 21.8496 126.478 21.9996 126.664 22.1163C126.85 22.2163 127.069 22.283 127.339 22.283C128.301 22.283 128.79 21.6163 128.79 20.2496C128.79 19.983 128.773 19.7163 128.706 19.4663C128.655 19.233 128.571 19.0163 128.47 18.833C128.352 18.6496 128.2 18.4996 128.014 18.383C127.828 18.283 127.609 18.233 127.339 18.233C126.377 18.2163 125.888 18.8996 125.888 20.2496ZM131.018 17.633C131.271 17.6163 131.524 17.5996 131.794 17.5663C132.081 17.5496 132.418 17.533 132.823 17.533C133.532 17.533 134.038 17.6496 134.342 17.8663C134.646 18.083 134.798 18.3996 134.798 18.833C134.798 19.083 134.73 19.333 134.578 19.5663C134.427 19.7996 134.19 19.9663 133.853 20.083V20.133C134.275 20.1996 134.578 20.3496 134.747 20.5496C134.916 20.7663 135 21.0496 135 21.3996C135 21.9496 134.798 22.3496 134.41 22.5996C134.005 22.833 133.397 22.9663 132.604 22.9663C132.3 22.9663 132.03 22.9496 131.777 22.933C131.524 22.9163 131.271 22.8996 131.018 22.883V17.633ZM131.878 22.183C132.013 22.1996 132.132 22.1996 132.267 22.2163C132.402 22.2163 132.553 22.233 132.739 22.233C133.212 22.233 133.566 22.1663 133.802 22.0163C134.038 21.883 134.14 21.6663 134.14 21.333C134.14 21.083 134.055 20.883 133.853 20.7163C133.65 20.5663 133.313 20.483 132.807 20.483H131.878V22.183ZM132.925 19.833C133.043 19.833 133.178 19.8163 133.296 19.783C133.414 19.733 133.515 19.683 133.617 19.5996C133.718 19.533 133.785 19.4496 133.853 19.3496C133.92 19.2496 133.937 19.133 133.937 19.033C133.937 18.7496 133.853 18.5496 133.684 18.4496C133.515 18.333 133.212 18.283 132.79 18.283C132.553 18.283 132.385 18.283 132.25 18.283C132.115 18.2996 131.997 18.2996 131.878 18.3163V19.833H132.925ZM35.9103 3.88298C35.7246 3.88298 35.5559 3.88298 35.3871 3.88298C35.2184 3.89965 35.0834 3.91632 34.9821 3.94965V6.99965C35.0159 7.01632 35.0665 7.01632 35.1509 7.03298C35.2184 7.03298 35.3028 7.03298 35.3871 7.03298C35.4715 7.04965 35.5559 7.04965 35.6403 7.04965C35.7246 7.04965 35.7753 7.04965 35.809 7.04965C36.0453 7.04965 36.2984 7.01632 36.5346 6.98298C36.7709 6.93298 36.9903 6.84965 37.1759 6.73298C37.3615 6.59965 37.5303 6.43298 37.6484 6.21632C37.7665 5.99965 37.8171 5.73298 37.8171 5.38298C37.8171 5.09965 37.7665 4.84965 37.6484 4.66632C37.5471 4.46632 37.3953 4.31632 37.2096 4.19965C37.0409 4.08298 36.8215 3.99965 36.6021 3.94965C36.3659 3.89965 36.1465 3.88298 35.9103 3.88298ZM39.5215 5.69965C39.7915 5.54965 40.0953 5.41632 40.4665 5.34965C40.8209 5.26632 41.1921 5.23298 41.5971 5.23298C41.9515 5.23298 42.2553 5.28298 42.4746 5.38298C42.7109 5.48298 42.8796 5.59965 42.9978 5.76632C43.1159 5.91632 43.1834 6.09965 43.234 6.28298C43.2678 6.46632 43.2846 6.66632 43.2846 6.84965C43.2846 7.28298 43.2846 7.68298 43.2509 8.08298C43.234 8.48298 43.2171 8.86632 43.2171 9.23298C43.2171 9.48298 43.234 9.73298 43.2509 9.96632C43.2846 10.1996 43.3184 10.4163 43.369 10.6163H42.7446L42.5253 9.86632H42.4578C42.4071 9.96632 42.3228 10.0663 42.2215 10.1663C42.1371 10.2496 42.019 10.333 41.884 10.4163C41.749 10.483 41.5803 10.5496 41.4115 10.5996C41.2259 10.6496 41.0234 10.6663 40.804 10.6663C40.5678 10.6663 40.3653 10.633 40.1628 10.5663C39.9603 10.4996 39.7915 10.3996 39.6565 10.2663C39.5215 10.133 39.4034 9.98298 39.319 9.79965C39.2346 9.61632 39.2009 9.39965 39.2009 9.18298C39.2009 8.86632 39.2684 8.59965 39.3865 8.39965C39.5215 8.19965 39.6903 8.03298 39.9265 7.89965C40.1628 7.78298 40.4328 7.69965 40.7534 7.63298C41.0909 7.58298 41.4453 7.56632 41.8334 7.56632C41.9346 7.56632 42.0359 7.56632 42.1371 7.56632C42.2215 7.56632 42.3228 7.56632 42.424 7.58298C42.4409 7.36632 42.4578 7.18298 42.4578 7.01632C42.4578 6.63298 42.3734 6.34965 42.2215 6.19965C42.0696 6.04965 41.7828 5.96632 41.3609 5.96632C41.2428 5.96632 41.1078 5.98298 40.9728 5.99965C40.8378 6.01632 40.6859 6.03298 40.5509 6.06632C40.399 6.09965 40.264 6.14965 40.129 6.18298C39.994 6.23298 39.8759 6.28298 39.7915 6.34965L39.5215 5.69965ZM41.0403 9.93298C41.2259 9.93298 41.4115 9.91632 41.5634 9.84965C41.7321 9.79965 41.8671 9.73298 41.9684 9.64965C42.0865 9.56632 42.1878 9.48298 42.2553 9.38298C42.3396 9.28298 42.3903 9.19965 42.424 9.09965V8.23298C42.3228 8.21632 42.2215 8.21632 42.1203 8.21632C42.019 8.19965 41.9178 8.19965 41.8165 8.19965C41.5971 8.19965 41.3778 8.21632 41.1753 8.23298C40.9559 8.26632 40.7703 8.31632 40.6184 8.38298C40.4496 8.44965 40.3315 8.53298 40.2303 8.64965C40.129 8.76632 40.0784 8.91632 40.0784 9.08298C40.0784 9.33298 40.1796 9.53298 40.3484 9.69965C40.534 9.84965 40.7534 9.93298 41.0403 9.93298ZM45.4109 8.23298V7.54965H46.1534C46.2715 7.54965 46.4065 7.53298 46.5246 7.48298C46.6596 7.44965 46.7609 7.38298 46.8621 7.31632C46.9634 7.23298 47.0478 7.14965 47.1153 7.04965C47.1659 6.94965 47.1996 6.83298 47.1996 6.73298C47.1996 6.44965 47.0984 6.26632 46.9128 6.14965C46.7103 6.03298 46.4234 5.98298 46.0521 5.98298C45.7653 5.98298 45.5121 6.01632 45.2759 6.09965C45.0565 6.18298 44.8709 6.26632 44.7359 6.33298L44.4996 5.69965C44.7021 5.56632 44.9553 5.46632 45.2421 5.38298C45.529 5.28298 45.8834 5.23298 46.2715 5.23298C47.4696 5.23298 48.0603 5.66632 48.0603 6.53298C48.0603 6.78298 47.9759 7.01632 47.8071 7.26632C47.6553 7.49965 47.419 7.66632 47.1153 7.76632V7.79965C47.5371 7.88298 47.8409 8.03298 48.0096 8.24965C48.1784 8.46632 48.2628 8.74965 48.2628 9.11632C48.2628 9.33298 48.2121 9.54965 48.1109 9.73298C48.0265 9.91632 47.8915 10.083 47.7059 10.233C47.5203 10.3663 47.284 10.483 46.9971 10.5663C46.7271 10.6496 46.3896 10.683 46.0184 10.683C45.664 10.683 45.3603 10.6496 45.124 10.583C44.8878 10.533 44.6684 10.4496 44.4659 10.3496L44.719 9.66632C44.8878 9.74965 45.0734 9.81632 45.3096 9.86632C45.5459 9.91632 45.799 9.94965 46.069 9.94965C46.5078 9.94965 46.8284 9.86632 47.0646 9.71632C47.284 9.58298 47.4021 9.34965 47.4021 9.04965C47.4021 8.79965 47.3009 8.59965 47.0815 8.44965C46.8621 8.29965 46.5078 8.23298 46.0184 8.23298H45.4109ZM49.5959 5.31632H50.1865L50.3384 5.94965H50.389C50.5409 5.69965 50.7603 5.51632 51.0134 5.38298C51.2834 5.24965 51.5703 5.18298 51.9078 5.18298C52.6165 5.18298 53.1565 5.39965 53.494 5.81632C53.8484 6.21632 54.0171 6.89965 54.0171 7.84965C54.0171 8.28298 53.9665 8.68298 53.8484 9.04965C53.7303 9.39965 53.5615 9.69965 53.359 9.94965C53.1396 10.183 52.8865 10.383 52.5828 10.5163C52.279 10.6496 51.9415 10.7163 51.5703 10.7163C51.3003 10.7163 51.0978 10.6996 50.9459 10.6663C50.794 10.633 50.6253 10.583 50.4396 10.4996V12.6996H49.5959V5.31632ZM51.7559 5.93298C51.3846 5.93298 51.0978 6.01632 50.8953 6.19965C50.6759 6.38298 50.524 6.66632 50.4396 7.04965V9.66632C50.5746 9.76632 50.7265 9.84965 50.8784 9.89965C51.0471 9.94965 51.2665 9.98298 51.5365 9.98298C52.0259 9.98298 52.414 9.79965 52.7009 9.43298C52.9878 9.06632 53.1396 8.53298 53.1396 7.83298C53.1396 7.54965 53.1059 7.28298 53.0553 7.04965C53.0215 6.81632 52.9371 6.61632 52.819 6.44965C52.7178 6.28298 52.5659 6.14965 52.3971 6.06632C52.2284 5.96632 52.009 5.93298 51.7559 5.93298ZM55.2828 5.69965C55.5528 5.54965 55.8565 5.41632 56.2278 5.34965C56.5821 5.26632 56.9534 5.23298 57.3415 5.23298C57.7128 5.23298 58.0165 5.28298 58.2359 5.38298C58.4721 5.48298 58.6409 5.59965 58.759 5.76632C58.8771 5.91632 58.9446 6.09965 58.9953 6.28298C59.029 6.46632 59.0459 6.66632 59.0459 6.84965C59.0459 7.28298 59.029 7.68298 59.0121 8.08298C58.9953 8.48298 58.9784 8.86632 58.9784 9.23298C58.9784 9.48298 58.9953 9.73298 59.0121 9.96632C59.029 10.1996 59.0796 10.4163 59.1303 10.6163H58.5059L58.2696 9.86632H58.219C58.1515 9.96632 58.084 10.0663 57.9828 10.1663C57.8815 10.2496 57.7634 10.333 57.6284 10.4163C57.4934 10.483 57.3415 10.5496 57.1728 10.5996C56.9871 10.6496 56.7846 10.6663 56.5653 10.6663C56.329 10.6663 56.1096 10.633 55.924 10.5663C55.7215 10.4996 55.5528 10.3996 55.4178 10.2663C55.2659 10.133 55.1646 9.98298 55.0803 9.79965C54.9959 9.61632 54.9621 9.39965 54.9621 9.18298C54.9621 8.86632 55.0128 8.59965 55.1478 8.39965C55.2828 8.19965 55.4515 8.03298 55.6878 7.89965C55.924 7.78298 56.194 7.69965 56.5146 7.63298C56.8521 7.58298 57.2065 7.56632 57.5946 7.56632C57.6959 7.56632 57.7971 7.56632 57.8815 7.56632C57.9828 7.56632 58.084 7.56632 58.1853 7.58298C58.2021 7.36632 58.219 7.18298 58.219 7.01632C58.219 6.63298 58.1346 6.34965 57.9828 6.19965C57.814 6.04965 57.544 5.96632 57.1221 5.96632C57.004 5.96632 56.869 5.98298 56.734 5.99965C56.599 6.01632 56.4471 6.03298 56.3121 6.06632C56.1603 6.09965 56.0253 6.14965 55.8903 6.18298C55.7553 6.23298 55.6371 6.28298 55.5359 6.34965L55.2828 5.69965ZM56.7846 9.93298C56.9871 9.93298 57.1728 9.91632 57.3246 9.84965C57.4765 9.79965 57.6115 9.73298 57.7296 9.64965C57.8478 9.56632 57.9321 9.48298 58.0165 9.38298C58.084 9.28298 58.1515 9.19965 58.1853 9.09965V8.23298C58.084 8.21632 57.9828 8.21632 57.8815 8.21632C57.7803 8.19965 57.679 8.19965 57.5778 8.19965C57.3584 8.19965 57.139 8.21632 56.9196 8.23298C56.7171 8.26632 56.5315 8.31632 56.3628 8.38298C56.2109 8.44965 56.0759 8.53298 55.9915 8.64965C55.8903 8.76632 55.8396 8.91632 55.8396 9.08298C55.8396 9.33298 55.924 9.53298 56.1096 9.69965C56.2784 9.84965 56.5146 9.93298 56.7846 9.93298ZM61.1384 6.24965C61.3746 5.91632 61.6278 5.68298 61.9146 5.53298C62.2015 5.39965 62.5559 5.33298 62.9946 5.33298C63.6359 5.33298 64.1421 5.54965 64.4965 5.96632C64.8509 6.38298 65.0365 7.01632 65.0365 7.83298C65.0365 8.78298 64.8171 9.49965 64.4121 9.98298C64.0071 10.4663 63.4334 10.7163 62.7078 10.7163C61.9146 10.7163 61.324 10.4496 60.9359 9.91632C60.5478 9.38298 60.3453 8.53298 60.3453 7.39965C60.3453 6.78298 60.379 6.26632 60.4465 5.83298C60.4971 5.41632 60.5984 5.04965 60.6996 4.74965C60.8178 4.46632 60.9696 4.21632 61.1384 4.04965C61.3071 3.86632 61.4928 3.73298 61.6953 3.63298C61.9146 3.53298 62.134 3.44965 62.3871 3.41632C62.6403 3.36632 62.9103 3.33298 63.1971 3.31632C63.5684 3.26632 63.8553 3.23298 64.0578 3.18298C64.2771 3.14965 64.4459 3.06632 64.564 2.93298L64.6653 3.69965C64.5978 3.76632 64.5134 3.81632 64.429 3.84965C64.3446 3.89965 64.2434 3.93298 64.1253 3.96632C64.0071 3.98298 63.8553 4.01632 63.6865 4.03298C63.5178 4.04965 63.3321 4.08298 63.1128 4.08298C62.7921 4.11632 62.539 4.14965 62.3028 4.19965C62.0665 4.24965 61.864 4.34965 61.6953 4.49965C61.5265 4.64965 61.4084 4.86632 61.3071 5.14965C61.2059 5.43298 61.1384 5.79965 61.1046 6.24965H61.1384ZM61.2396 7.96632C61.2396 8.23298 61.2734 8.48298 61.324 8.73298C61.3746 8.98298 61.459 9.19965 61.5771 9.38298C61.6953 9.56632 61.8471 9.71632 62.0328 9.81632C62.2184 9.91632 62.4378 9.98298 62.6909 9.98298C63.1803 9.98298 63.5515 9.79965 63.7878 9.44965C64.024 9.09965 64.1421 8.58298 64.1421 7.91632C64.1421 7.64965 64.1253 7.39965 64.0746 7.16632C64.024 6.94965 63.9396 6.74965 63.8384 6.58298C63.7203 6.41632 63.5853 6.29965 63.4334 6.19965C63.2646 6.11632 63.0621 6.06632 62.8428 6.06632C62.2859 6.06632 61.8809 6.23298 61.6278 6.54965C61.3578 6.88298 61.2396 7.34965 61.2396 7.96632ZM66.0659 7.94965C66.0659 7.04965 66.2684 6.36632 66.6734 5.89965C67.0784 5.41632 67.6521 5.18298 68.4115 5.18298C68.7996 5.18298 69.154 5.24965 69.4409 5.38298C69.7446 5.51632 69.9809 5.69965 70.1834 5.93298C70.369 6.18298 70.5209 6.48298 70.6053 6.81632C70.7065 7.14965 70.7403 7.53298 70.7403 7.94965C70.7403 8.84965 70.5378 9.53298 70.1328 9.99965C69.7446 10.483 69.154 10.7163 68.4115 10.7163C68.0065 10.7163 67.6521 10.6496 67.3653 10.5163C67.0615 10.383 66.8253 10.1996 66.6396 9.96632C66.4371 9.71632 66.3021 9.43298 66.2009 9.08298C66.1165 8.74965 66.0659 8.36632 66.0659 7.94965ZM66.9603 7.94965C66.9603 8.21632 66.9771 8.48298 67.0278 8.71632C67.0784 8.96632 67.1628 9.18298 67.2809 9.36632C67.399 9.54965 67.5509 9.69965 67.7365 9.79965C67.9221 9.91632 68.1415 9.98298 68.4115 9.98298C69.3734 9.98298 69.8628 9.31632 69.8628 7.94965C69.8628 7.68298 69.829 7.41632 69.7784 7.16632C69.7278 6.91632 69.6434 6.71632 69.5253 6.53298C69.4071 6.34965 69.2553 6.19965 69.0865 6.08298C68.9009 5.98298 68.6646 5.93298 68.4115 5.93298C67.4328 5.91632 66.9603 6.59965 66.9603 7.94965ZM75.3134 6.04965H73.6428V10.583H72.7821V6.04965H71.1115V5.31632H75.3134V6.04965ZM77.4903 8.21632H77.0009V10.583H76.1571V5.31632H77.0009V7.69965L77.4734 7.54965L79.1778 5.31632H80.1059L78.4521 7.43298L77.9965 7.78298L78.5534 8.19965L80.3421 10.583H79.279L77.4903 8.21632ZM81.169 5.69965C81.439 5.54965 81.7428 5.41632 82.114 5.34965C82.4684 5.26632 82.8396 5.23298 83.2278 5.23298C83.599 5.23298 83.9028 5.28298 84.1221 5.38298C84.3584 5.48298 84.5271 5.59965 84.6453 5.76632C84.7634 5.91632 84.8309 6.09965 84.8815 6.28298C84.9153 6.46632 84.9321 6.66632 84.9321 6.84965C84.9321 7.28298 84.9153 7.68298 84.8984 8.08298C84.8815 8.48298 84.8646 8.86632 84.8646 9.23298C84.8646 9.48298 84.8815 9.73298 84.8984 9.96632C84.9153 10.1996 84.9659 10.4163 85.0165 10.6163H84.3921L84.1559 9.86632H84.1053C84.0378 9.96632 83.9703 10.0663 83.869 10.1663C83.7678 10.2496 83.6496 10.333 83.5146 10.4163C83.3796 10.483 83.2278 10.5496 83.059 10.5996C82.8734 10.6496 82.6709 10.6663 82.4515 10.6663C82.2153 10.6663 81.9959 10.633 81.8103 10.5663C81.6078 10.4996 81.439 10.3996 81.304 10.2663C81.1521 10.133 81.0509 9.98298 80.9665 9.79965C80.8821 9.61632 80.8484 9.39965 80.8484 9.18298C80.8484 8.86632 80.899 8.59965 81.034 8.39965C81.169 8.19965 81.3378 8.03298 81.574 7.89965C81.8103 7.78298 82.0803 7.69965 82.4009 7.63298C82.7384 7.58298 83.0928 7.56632 83.4809 7.56632C83.5821 7.56632 83.6834 7.56632 83.7678 7.56632C83.869 7.56632 83.9703 7.56632 84.0715 7.58298C84.0884 7.36632 84.1053 7.18298 84.1053 7.01632C84.1053 6.63298 84.0209 6.34965 83.869 6.19965C83.7003 6.04965 83.4303 5.96632 83.0084 5.96632C82.8903 5.96632 82.7553 5.98298 82.6203 5.99965C82.4853 6.01632 82.3334 6.03298 82.1984 6.06632C82.0465 6.09965 81.9115 6.14965 81.7765 6.18298C81.6415 6.23298 81.5234 6.28298 81.4221 6.34965L81.169 5.69965ZM82.6709 9.93298C82.8734 9.93298 83.059 9.91632 83.2109 9.84965C83.3628 9.79965 83.4978 9.73298 83.6159 9.64965C83.734 9.56632 83.8353 9.48298 83.9028 9.38298C83.9703 9.28298 84.0378 9.19965 84.0715 9.09965V8.23298C83.9703 8.21632 83.869 8.21632 83.7678 8.21632C83.6665 8.19965 83.5653 8.19965 83.464 8.19965C83.2446 8.19965 83.0253 8.21632 82.8059 8.23298C82.6034 8.26632 82.4178 8.31632 82.249 8.38298C82.0971 8.44965 81.9621 8.53298 81.8778 8.64965C81.7765 8.76632 81.7259 8.91632 81.7259 9.08298C81.7259 9.33298 81.8103 9.53298 81.9959 9.69965C82.1815 9.84965 82.4009 9.93298 82.6709 9.93298Z" fill="#F5F5F5"/>
       <path fill-rule="evenodd" clip-rule="evenodd" d="M7.6272 23.6164L15.3222 10.433L12.6897 20.2997L22.9159 21.783L7.6272 23.6164ZM21.0259 3.48303L28.7209 16.6497L21.3803 9.46637L14.9678 17.4664L21.0259 3.48303ZM31.9778 24.9997H16.5709L26.5441 22.3164L22.7303 12.833L31.9778 24.9997Z" fill="red"/>
       <path fill-rule="evenodd" clip-rule="evenodd" d="M15.8794 2.36667L15.12 3.51667L16.2338 4.81667L15.5081 5.91667L11.4413 1.13333L12.1838 0L18.2588 1.71667L17.5331 2.83333L15.8794 2.36667ZM4.94438 21.9167L0 18.75C0.219375 18.25 0.455625 17.7833 0.77625 17.3167C1.8225 15.7 3.27375 15.2667 4.9275 16.3167C5.67 16.8167 6.2775 17.4167 6.46313 18.3333C6.63188 19.1833 6.26063 20.0833 5.805 20.7833C5.535 21.2 5.265 21.55 4.94438 21.9167ZM1.51875 18.2167L4.77563 20.3C4.84313 20.2167 4.91062 20.1167 4.96125 20.0333C5.68688 18.95 5.24813 18.0833 4.21875 17.4333C3.25688 16.8167 2.37937 16.8667 1.73813 17.8333C1.72125 17.8667 1.51875 18.2167 1.51875 18.2167ZM4.84313 13.25L5.85563 13.8833L6.91875 12.2667L7.86375 12.8667L6.80063 14.5L7.99875 15.2667L9.19688 13.4333L10.1588 14.05L8.26875 16.95L3.18938 13.7L5.01188 10.9L5.97375 11.5167L4.84313 13.25ZM10.7494 11.0667L11.9306 9.26667L12.8925 9.88333L11.0194 12.75L5.94 9.5L6.64875 8.43333L10.7494 11.0667ZM10.3781 4.85L14.4788 7.46667L13.7869 8.53333L9.68625 5.9L8.85938 7.15L7.8975 6.53333L10.2431 2.96667L11.205 3.58333L10.3781 4.85ZM14.3438 2.71667L14.8163 2C14.3269 1.86667 13.8375 1.73333 13.3481 1.58333C13.7025 1.93333 14.0231 2.35 14.3438 2.71667Z" fill="#F5F5F5"/>
</g>
    </symbol>
</svg>




